Coordinates
version=1
nRows=21
nColumns=22
inDegrees=yes

Units are S.I. units (second, meters, Newtons, ...)
If the header above contains a line with 'inDegrees', this indicates whether rotational values are in degrees (yes) or radians (no).

endheader
time	pelvis_tilt	pelvis_list	pelvis_rotation	pelvis_tx	pelvis_ty	pelvis_tz	hip_flexion_r	hip_adduction_r	hip_rotation_r	knee_angle_r	ankle_angle_r	subtalar_angle_r	hip_flexion_l	hip_adduction_l	hip_rotation_l	knee_angle_l	ankle_angle_l	subtalar_angle_l	lumbar_extension	lumbar_bending	lumbar_rotation
      1.88000000	     -0.01647211	     -1.12312969	     29.74016791	      0.61005443	      0.93815895	      0.89919420	     18.97335881	     -2.43807378	      0.92289521	    -68.97471963	      7.19224136	      4.06474452	     18.80331182	      8.03052480	      4.40764749	    -27.31670792	      6.03594165	    -17.38545777	     -4.48566971	      2.01121231	     -8.87316015
      1.89000000	      0.09498356	     -0.97237910	     30.79083078	      0.61646852	      0.93902696	      0.89208707	     20.03435759	     -2.35338825	      1.21889226	    -68.67650471	      7.80450407	      3.78363127	     17.71287754	      8.49856217	      5.28169409	    -26.87757329	      6.39239831	    -17.58247994	     -4.47668847	      2.01204000	     -9.36013262
      1.90000000	      0.28489057	     -0.84156308	     31.84620474	      0.62285627	      0.93995954	      0.88503909	     20.95780207	     -2.19847226	      1.50221111	    -68.16126836	      8.26393193	      3.34673153	     16.53387856	      8.87597875	      6.23525693	    -26.41203000	      6.70145530	    -17.81724144	     -4.53681720	      2.07199000	     -9.79497753
      1.91000000	      0.44272537	     -0.70845427	     32.88635265	      0.62917622	      0.94071715	      0.87812093	     21.87577822	     -2.03642053	      1.84247239	    -67.51285226	      8.68494221	      3.11215227	     15.41035902	      9.23247215	      7.17911634	    -25.99760142	      7.05042328	    -18.02003994	     -4.57333798	      2.10217245	    -10.23630404
      1.92000000	      0.59931725	     -0.57555212	     33.91632160	      0.63542091	      0.94135427	      0.87133791	     22.75572529	     -1.84756761	      2.22497339	    -66.72898352	      9.03628423	      2.99512807	     14.30837415	      9.55339037	      8.14605506	    -25.62294135	      7.42721309	    -18.21216733	     -4.62208086	      2.12284745	    -10.66269348
      1.93000000	      0.77339526	     -0.44833242	     34.93434815	      0.64166538	      0.94194631	      0.86463745	     23.55580104	     -1.61918849	      2.63715289	    -65.77712091	      9.29705912	      2.95297610	     13.19118639	      9.81616330	      9.11653221	    -25.25175301	      7.79190169	    -18.39512533	     -4.68165785	      2.15315551	    -11.05446298
      1.94000000	      0.94952469	     -0.32013191	     35.93453959	      0.64790297	      0.94246172	      0.85802049	     24.29246445	     -1.36981608	      3.08006399	    -64.67845328	      9.49529686	      3.00001555	     12.07690627	     10.03504203	     10.07437783	    -24.89171812	      8.15493232	    -18.56290302	     -4.74466624	      2.17775095	    -11.41893346
      1.95000000	      1.09494803	     -0.19302400	     36.90949896	      0.65408376	      0.94282593	      0.85151793	     25.00837923	     -1.11202778	      3.57752784	    -63.45616740	      9.63954095	      3.10671831	     11.02399494	     10.23678396	     11.02634386	    -24.58902882	      8.54561359	    -18.71277364	     -4.78955970	      2.17784364	    -11.76055660
      1.96000000	      1.23586583	     -0.07306340	     37.85970337	      0.66028818	      0.94312398	      0.84504538	     25.65817052	     -0.83946811	      4.10336594	    -62.08626125	      9.72996564	      3.26971965	      9.97663205	     10.39043468	     11.93905712	    -24.28173695	      8.91866131	    -18.83464042	     -4.81674367	      2.17980353	    -12.07480720
      1.97000000	      1.33799589	      0.03642102	     38.77182074	      0.66644242	      0.94326355	      0.83867783	     26.29456485	     -0.56377379	      4.68432288	    -60.59979156	      9.76332371	      3.42999087	      9.00177687	     10.53157458	     12.84546581	    -24.02758055	      9.31489872	    -18.94896550	     -4.81607228	      2.15884606	    -12.34435217
      1.98000000	      1.44395919	      0.14253051	     39.64764238	      0.67263143	      0.94336971	      0.83231539	     26.84303197	     -0.28039959	      5.29434311	    -58.96251535	      9.75336970	      3.66620656	      8.01394390	     10.62432663	     13.69290331	    -23.74800388	      9.66756788	    -19.03369766	     -4.81140140	      2.14428763	    -12.59150755
      1.99000000	      1.49574017	      0.22518032	     40.50018200	      0.67871930	      0.94326449	      0.82601700	     27.39807535	     -0.01582764	      5.94249271	    -57.22452228	      9.66798334	      3.85891513	      7.13146581	     10.72264371	     14.55089765	    -23.54538589	     10.05596693	    -19.14713470	     -4.75757090	      2.11280868	    -12.81511214
      2.00000000	      1.56398284	      0.32139515	     41.29637549	      0.68484888	      0.94316335	      0.81972296	     27.83360037	      0.24212916	      6.62719420	    -55.32916252	      9.57615257	      4.22366953	      6.20377107	     10.77992294	     15.33523847	    -23.29510748	     10.37553157	    -19.24593268	     -4.72855265	      2.08314333	    -12.99461249
      2.01000000	      1.57267965	      0.37420725	     42.09486711	      0.69086166	      0.94282834	      0.81342407	     28.27876648	      0.45327300	      7.28683829	    -53.32221237	      9.41140234	      4.47162463	      5.39030384	     10.83708129	     16.12691957	    -23.10783910	     10.74377185	    -19.37634255	     -4.62669068	      2.05206633	    -13.19406342
      2.02000000	      1.60107442	      0.46163507	     42.83359614	      0.69694107	      0.94251579	      0.80711483	     28.57628202	      0.63061673	      7.96818213	    -51.15561465	      9.30505815	      4.94282952	      4.50341157	     10.86604782	     16.83214861	    -22.85260674	     11.04520908	    -19.48809397	     -4.57068134	      2.00330347	    -13.34696774
      2.03000000	      1.59386275	      0.52935219	     43.57007600	      0.70293792	      0.94203204	      0.80077076	     28.83305296	      0.74915463	      8.61380091	    -48.87189414	      9.19507429	      5.38225341	      3.67487271	     10.89375990	     17.53284448	    -22.62535769	     11.38922542	    -19.59051921	     -4.47866120	      1.94996515	    -13.49754711
      2.04000000	      1.57210618	      0.60087768	     44.28770100	      0.70893021	      0.94145585	      0.79438625	     29.00060677	      0.80700508	      9.22442498	    -46.45947869	      9.13415075	      5.85901615	      2.84571968	     10.91101385	     18.20333207	    -22.38011946	     11.74314546	    -19.66268287	     -4.38189996	      1.88029364	    -13.62897536
      2.05000000	      1.53667243	      0.67348346	     44.99195029	      0.71493482	      0.94078081	      0.78795440	     29.08258419	      0.80215014	      9.77865561	    -43.93189256	      9.13425777	      6.36953520	      2.01278989	     10.91502210	     18.85416645	    -22.11258043	     12.10947324	    -19.70130247	     -4.27588800	      1.79506456	    -13.75852005
      2.06000000	      1.48293599	      0.74045268	     45.69432631	      0.72093200	      0.93999149	      0.78143756	     29.09221034	      0.72919701	     10.25986454	    -41.31362294	      9.19290961	      6.86923852	      1.18326943	     10.90532197	     19.48808834	    -21.82002708	     12.48316807	    -19.71362279	     -4.14987760	      1.70321724	    -13.90264704
      2.07000000	      1.41748101	      0.81327667	     46.38282635	      0.72692421	      0.93910044	      0.77484574	     29.02721353	      0.59511365	     10.68435258	    -38.63692249	      9.30780530	      7.41976767	      0.34638098	     10.88897381	     20.10598662	    -21.50864073	     12.85716151	    -19.69290224	     -4.02196680	      1.60202491	    -14.03140848
      2.08000000	      1.33141518	      0.86511757	     47.09142354	      0.73284473	      0.93805286	      0.76815306	     28.92563512	      0.39342387	     10.99436457	    -35.93456728	      9.44618270	      7.85695491	     -0.44951048	     10.86665557	     20.75450840	    -21.22573480	     13.25282517	    -19.68992555	     -3.86412136	      1.50773569	    -14.20682610
